# xmcd CD database file
#
# Track frame offsets:
#	187
#	9165
#	20730
#	30942
#	38637
#	51875
#	61990
#	74162
#	84322
#	94455
#	107837
#	128142
#	138947
#
# Disc length: 1938 seconds
#
# Revision: 4
# Processed by: cddbd v1.5.2PL0 Copyright (c) Steve Scherf et al.
# Submitted via: CDex 1.51
#
DISCID=a907900d
DTITLE=SATANIC SURFERS - Hero Of Our Time
DYEAR=1900
DGENRE=
TTITLE0=And The Cheese Fell Down
TTITLE1=Better Off Today
TTITLE2=Use a Bee
TTITLE3=Ketty
TTITLE4=Hero Of Our Time
TTITLE5=Before It's Too Late
TTITLE6=The Treaty And The Bridge
TTITLE7=Armless Skater
TTITLE8=Puppet
TTITLE9=Got To Throw Up
TTITLE10=Good Morning
TTITLE11=Head Under Water
TTITLE12=Evil
EXTD=
EXTT0=
EXTT1=
EXTT2=
EXTT3=
EXTT4=
EXTT5=
EXTT6=
EXTT7=
EXTT8=
EXTT9=
EXTT10=
EXTT11=
EXTT12=
PLAYORDER=
